<svg width="26" height="50" viewBox="0 0 26 50" fill="none" xmlns="http://www.w3.org/2000/svg">
<rect width="25" height="50" transform="translate(0.5 0.000488281)" fill="white"/>
<path d="M13.0226 6.25049C7.50889 6.25049 2.99619 10.7634 2.99619 16.2771V17.6465H7.01152V16.2771C7.01152 12.9334 9.679 10.2659 13.0226 10.2659C16.3661 10.2659 19.0336 12.9334 19.0336 16.2771V21.7704C17.2647 20.7135 15.2005 20.1044 12.9998 20.1044C6.49395 20.1044 1.17676 25.4216 1.17676 31.9274C1.17676 38.4333 6.49395 43.7505 12.9998 43.7505C19.5057 43.7505 24.8229 38.4334 24.8229 31.9274C24.8229 29.653 24.1724 27.5243 23.049 25.7169V16.2771C23.049 10.7634 18.5362 6.25049 13.0226 6.25049ZM12.9998 24.1198C17.3355 24.1198 20.8074 27.5917 20.8074 31.9274C20.8074 36.2633 17.3355 39.7351 12.9998 39.7351C8.66406 39.7351 5.19219 36.2633 5.19219 31.9274C5.19219 27.5917 8.66406 24.1198 12.9998 24.1198ZM13.0384 28.6504C11.2088 28.6504 9.72568 30.1335 9.72568 31.9631C9.72568 33.7927 11.2088 35.2758 13.0384 35.2758C14.8679 35.2758 16.3511 33.7927 16.3511 31.9631C16.3511 30.1335 14.8679 28.6504 13.0384 28.6504Z" fill="#408FAA"/>
</svg>
