<svg width="37" height="36" viewBox="0 0 37 36" fill="none" xmlns="http://www.w3.org/2000/svg">
<rect width="36" height="36" transform="translate(0.5 0.000488281)" fill="white"/>
<path d="M6.5 4.50049H15.5C16.325 4.50049 17 5.17549 17 6.00049V15.0005C17 15.8255 16.325 16.5005 15.5 16.5005H6.5C5.675 16.5005 5 15.8255 5 15.0005V6.00049C5 5.17549 5.675 4.50049 6.5 4.50049ZM21.5 4.50049H30.5C31.325 4.50049 32 5.17549 32 6.00049V15.0005C32 15.8255 31.325 16.5005 30.5 16.5005H21.5C20.675 16.5005 20 15.8255 20 15.0005V6.00049C20 5.17549 20.675 4.50049 21.5 4.50049ZM6.5 19.5005H15.5C16.325 19.5005 17 20.1755 17 21.0005V30.0005C17 30.8255 16.325 31.5005 15.5 31.5005H6.5C5.675 31.5005 5 30.8255 5 30.0005V21.0005C5 20.1755 5.675 19.5005 6.5 19.5005ZM26 19.5005C25.175 19.5005 24.5 20.1755 24.5 21.0005V24.0005H21.5C20.675 24.0005 20 24.6755 20 25.5005C20 26.3255 20.675 27.0005 21.5 27.0005H24.5V30.0005C24.5 30.8255 25.175 31.5005 26 31.5005C26.825 31.5005 27.5 30.8255 27.5 30.0005V27.0005H30.5C31.325 27.0005 32 26.3255 32 25.5005C32 24.6755 31.325 24.0005 30.5 24.0005H27.5V21.0005C27.5 20.1755 26.825 19.5005 26 19.5005Z" fill="#468F7E"/>
</svg>
