<svg width="360" height="851" viewBox="0 0 360 851" fill="none" xmlns="http://www.w3.org/2000/svg">
<g clip-path="url(#clip0_299_4764)">
<path d="M98.3945 0H204.142C207.362 23.0909 216.862 56.367 243.822 86.4389C285.649 133.05 346.797 140.926 360 142V142.054C337.172 141.839 266.113 143.432 190.474 182.454H190.456C171.994 164.948 148.665 138.42 129.666 101.564C110.256 63.9208 101.883 28.1029 98.3945 0Z" fill="#468F7E"/>
<path d="M204.143 0H360V142C346.797 140.926 285.649 133.068 243.823 86.4389C216.862 56.367 207.363 23.091 204.143 0Z" fill="#5EBB9D"/>
<path d="M360 142.054V242.902H359.875C343.148 242.562 251.802 242.187 177.415 314.52C100.309 389.557 100.363 485.357 100.81 501.378H0.000214915V501.109C-0.0176751 485.787 0.984166 412.702 40.1632 334.622C57.9995 299.055 83.7611 262.431 120.972 229.8C143.746 209.841 167.307 194.394 190.457 182.454H190.475C266.114 143.432 337.173 141.839 360 142.054Z" fill="#468F7E"/>
<path d="M358.962 747.127V850.928C357.978 850.946 357.227 850.982 356.69 851C330.875 850.732 209.277 846.686 109.236 749.149C14.3478 656.571 1.44909 541.939 0 501.378H100.81C110.757 605.502 151.993 656.606 185.591 684.101C214.286 707.585 272.268 749.525 358.944 747.127H358.962Z" fill="#459EA8"/>
</g>
<defs>
<clipPath id="clip0_299_4764">
<rect width="360" height="851" fill="white"/>
</clipPath>
</defs>
</svg>
