<svg width="23" height="24" viewBox="0 0 23 24" fill="none" xmlns="http://www.w3.org/2000/svg">
<path d="M11.5 3.42285C9.72306 3.42285 7.98603 3.94978 6.50855 4.93699C5.03108 5.92421 3.87953 7.32738 3.19952 8.96906C2.51952 10.6107 2.3416 12.4172 2.68826 14.16C3.03493 15.9028 3.8906 17.5037 5.14709 18.7601C6.40358 20.0166 8.00444 20.8723 9.74724 21.219C11.49 21.5656 13.2965 21.3877 14.9382 20.7077C16.5799 20.0277 17.983 18.8762 18.9702 17.3987C19.9575 15.9212 20.4844 14.1842 20.4844 12.4072C20.4818 10.0252 19.5344 7.74153 17.85 6.0572C16.1657 4.37287 13.882 3.42547 11.5 3.42285ZM11.5 20.6729C9.86522 20.6729 8.26714 20.1881 6.90787 19.2798C5.54859 18.3716 4.48917 17.0807 3.86356 15.5703C3.23796 14.06 3.07427 12.3981 3.3932 10.7947C3.71213 9.19131 4.49936 7.71852 5.65532 6.56255C6.81129 5.40658 8.28409 4.61935 9.88746 4.30042C11.4908 3.98149 13.1528 4.14518 14.6631 4.77078C16.1735 5.39639 17.4644 6.45582 18.3726 7.81509C19.2809 9.17437 19.7656 10.7724 19.7656 12.4072C19.7633 14.5987 18.8916 16.6997 17.3421 18.2493C15.7925 19.7989 13.6915 20.6705 11.5 20.6729ZM14.6625 14.78C14.1646 15.4435 13.4705 15.9336 12.6786 16.1808C11.8867 16.428 11.037 16.4198 10.2501 16.1573C9.46307 15.8949 8.7786 15.3915 8.29357 14.7184C7.80855 14.0454 7.54755 13.2368 7.54755 12.4072C7.54755 11.5776 7.80855 10.7691 8.29357 10.096C8.7786 9.42298 9.46307 8.91959 10.2501 8.65714C11.037 8.39469 11.8867 8.38647 12.6786 8.63366C13.4705 8.88085 14.1646 9.37092 14.6625 10.0345C14.6909 10.0722 14.7115 10.1152 14.7233 10.1609C14.7351 10.2067 14.7377 10.2543 14.7311 10.301C14.7245 10.3478 14.7087 10.3928 14.6847 10.4335C14.6606 10.4741 14.6288 10.5097 14.5911 10.538C14.5533 10.5664 14.5103 10.5871 14.4646 10.5988C14.4189 10.6106 14.3713 10.6132 14.3245 10.6066C14.2777 10.6 14.2327 10.5842 14.1921 10.5602C14.1514 10.5362 14.1159 10.5044 14.0875 10.4666C13.6802 9.92353 13.1124 9.52238 12.4644 9.31997C11.8164 9.11756 11.1212 9.12416 10.4772 9.33883C9.8332 9.5535 9.27307 9.96535 8.87614 10.5161C8.47922 11.0668 8.26563 11.7284 8.26563 12.4072C8.26563 13.0861 8.47922 13.7477 8.87614 14.2984C9.27307 14.8491 9.8332 15.261 10.4772 15.4756C11.1212 15.6903 11.8164 15.6969 12.4644 15.4945C13.1124 15.2921 13.6802 14.8909 14.0875 14.3479C14.1448 14.2716 14.2301 14.2212 14.3245 14.2078C14.4189 14.1945 14.5148 14.2191 14.5911 14.2764C14.6673 14.3337 14.7177 14.419 14.7311 14.5134C14.7445 14.6079 14.7198 14.7038 14.6625 14.78Z" fill="black"/>
</svg>
