<svg width="31" height="31" viewBox="0 0 31 31" fill="none" xmlns="http://www.w3.org/2000/svg">
<g clip-path="url(#clip0_51_2497)">
<path d="M25.8347 21.04V25.8333H20.668V23.25H18.0847V20.6667H15.5013V18.5781C14.506 19.1029 13.3974 19.3765 12.2722 19.375C11.0129 19.3783 9.77572 19.0438 8.68972 18.4063C8.16699 18.0983 7.68544 17.7253 7.25662 17.2961C6.82475 16.8636 6.44855 16.3789 6.13674 15.8533C5.82134 15.3237 5.58034 14.7533 5.42051 14.158C5.25654 13.5422 5.17168 12.9081 5.16799 12.2708C5.16467 11.0115 5.49921 9.77441 6.13674 8.68841C6.44471 8.16568 6.81775 7.68413 7.24693 7.25531C7.6794 6.82344 8.16407 6.44724 8.68972 6.13543C9.21929 5.82003 9.78974 5.57903 10.385 5.4192C11.0008 5.25522 11.6349 5.17037 12.2722 5.16668C13.5315 5.16336 14.7686 5.4979 15.8546 6.13543C16.3773 6.44339 16.8589 6.81643 17.2877 7.24562C17.7196 7.67808 18.0958 8.16276 18.4076 8.68841C18.723 9.21797 18.964 9.78843 19.1238 10.3837C19.2878 10.9995 19.3726 11.6336 19.3763 12.2708C19.3763 12.6122 19.3494 12.9529 19.2956 13.29C19.2423 13.6247 19.1648 13.9552 19.0637 14.2787L25.8347 21.04ZM24.543 21.5851L17.5803 14.6223C17.7255 14.2468 17.8467 13.8624 17.9432 13.4715C18.0387 13.0784 18.0862 12.6753 18.0847 12.2708C18.0902 11.4944 17.9363 10.725 17.6326 10.0104C17.3399 9.31912 16.9147 8.69183 16.381 8.16399C15.8479 7.63828 15.2209 7.21724 14.5326 6.9227C13.8182 6.6167 13.0493 6.45874 12.2722 6.45835C11.4957 6.45279 10.7263 6.60666 10.0117 6.91043C9.32044 7.20306 8.69315 7.62828 8.16531 8.16206C7.63959 8.69514 7.21855 9.3221 6.92401 10.0104C6.61802 10.7248 6.46005 11.4937 6.45966 12.2708C6.45411 13.0473 6.60797 13.8167 6.91174 14.5313C7.20437 15.2226 7.62959 15.8499 8.16337 16.3777C8.69645 16.9034 9.32342 17.3245 10.0117 17.619C11.338 18.1885 12.8307 18.2347 14.1896 17.7482C14.8091 17.5306 15.3861 17.207 15.8946 16.7917H16.793V19.375H19.3763V21.9583H21.9597V24.5417H24.543V21.5851ZM10.3347 9.04168C10.508 9.03998 10.6797 9.07429 10.8391 9.14243C10.9897 9.20686 11.1267 9.29935 11.2427 9.41497C11.3609 9.53503 11.4567 9.67522 11.5256 9.82895C11.5985 9.98677 11.633 10.1596 11.6263 10.3333C11.628 10.5066 11.5937 10.6784 11.5256 10.8377C11.4611 10.9884 11.3687 11.1253 11.253 11.2414C11.133 11.3596 10.9928 11.4554 10.8391 11.5243C10.6812 11.5972 10.5084 11.6317 10.3347 11.625C10.1614 11.6267 9.98961 11.5924 9.83026 11.5243C9.67965 11.4598 9.54267 11.3673 9.42662 11.2517C9.30844 11.1317 9.21264 10.9915 9.14374 10.8377C9.07081 10.6799 9.03629 10.5071 9.04299 10.3333C9.04129 10.1601 9.0756 9.9883 9.14374 9.82895C9.20817 9.67834 9.30066 9.54135 9.41629 9.42531C9.53634 9.30712 9.67653 9.21133 9.83026 9.14243C9.98808 9.0695 10.1609 9.03497 10.3347 9.04168Z" fill="#404040"/>
</g>
<defs>
<clipPath id="clip0_51_2497">
<rect width="31" height="31" fill="white"/>
</clipPath>
</defs>
</svg>
