<svg width="39" height="38" viewBox="0 0 39 38" fill="none" xmlns="http://www.w3.org/2000/svg">
<g clip-path="url(#clip0_299_4897)">
<rect width="38" height="38" transform="translate(0.5 0.000488281)" fill="white"/>
<path d="M19.291 33.2768L11.292 37.5651L11.1039 37.6487C9.7454 38.1617 8.4629 38.0591 7.4882 37.1889C6.5724 36.3719 6.2399 35.2015 6.4299 33.8544L7.7675 24.6204L1.7255 18.2706C0.680498 17.2066 0.271999 15.8994 0.623499 14.5314C1.013 13.0133 2.2955 12.1412 4.1404 11.8486L12.1717 10.6364L16.3764 1.92493C17.03 0.695631 18.0484 -0.0320691 19.3309 0.00213089C20.5849 0.0344309 21.5786 0.803931 22.3576 2.17383L26.4236 10.6972L35.4296 11.9474C36.8603 12.1944 37.9148 12.9392 38.3366 14.1818C38.7546 15.4225 38.3556 16.6765 37.2783 17.9571L30.7423 24.6261L32.2091 33.8525C32.4409 35.4485 32.1616 36.712 31.0957 37.4625C30.1343 38.1408 28.9316 38.1408 27.5484 37.6658L27.3204 37.5651L19.291 33.2768Z" fill="#5EBB9D"/>
</g>
<defs>
<clipPath id="clip0_299_4897">
<rect width="38" height="38" fill="white" transform="translate(0.5 0.000488281)"/>
</clipPath>
</defs>
</svg>
