<svg width="459" height="444" viewBox="0 0 459 444" fill="none" xmlns="http://www.w3.org/2000/svg">
<path d="M323.07 0.80849L458.527 0.808502C457.449 22.9066 453.846 60.6319 441.914 105.333C422.684 177.295 381.792 267.432 295.006 339.647C267.653 362.41 239.519 380.24 211.891 394.169C180.545 410.003 149.865 420.857 121.709 428.246C119.322 428.888 116.936 429.485 114.595 430.082C113.333 430.38 112.094 430.678 110.855 430.976C109.799 431.229 108.721 431.481 107.665 431.734C107.321 431.826 106.977 431.894 106.609 431.986C104.338 432.491 102.089 432.996 99.8401 433.478C53.9228 443.276 17.0006 444.125 -1.38004 443.988L-1.99954 443.988L-1.99953 312.202C20.787 311.743 138.988 307.108 231.878 210.087C306.778 131.814 320.477 40.1859 323.07 0.80849Z" fill="#408FAA"/>
</svg>
