<svg width="77" height="42" viewBox="0 0 77 42" fill="none" xmlns="http://www.w3.org/2000/svg">
<path d="M25.8774 12.0086L33.3006 20.6969L33.3255 20.6719L38.5 26.7283L38.5214 26.7534L46.0836 35.6044C48.5757 38.5205 51.7507 40.5063 55.207 41.3105C58.6633 42.1148 62.2458 41.7015 65.5014 40.1228C68.7571 38.5442 71.5396 35.8711 73.4974 32.4415C75.4551 29.012 76.5 24.98 76.5 20.8554C76.5 16.7309 75.4551 12.6989 73.4974 9.26936C71.5396 5.83982 68.7571 3.16672 65.5014 1.58806C62.2458 0.00939968 58.6633 -0.403927 55.207 0.400339C51.7507 1.2046 48.5757 3.19034 46.0836 6.10648L43.5391 9.08464L48.5817 14.9825L51.1226 12.0086C52.6177 10.2582 54.5227 9.06603 56.5966 8.5829C58.6706 8.09976 60.8204 8.34734 62.7741 9.29433C64.7278 10.2413 66.3977 11.8452 67.5726 13.9031C68.7475 15.9609 69.3746 18.3804 69.3746 20.8554C69.3746 23.3305 68.7475 25.75 67.5726 27.8078C66.3977 29.8657 64.7278 31.4696 62.7741 32.4165C60.8204 33.3635 58.6706 33.6111 56.5966 33.128C54.5227 32.6448 52.6177 31.4527 51.1226 29.7023L43.7386 21.0598L43.7137 21.0849L30.92 6.11065C28.4283 3.19334 25.2533 1.20642 21.7967 0.401202C18.3401 -0.40402 14.7571 0.00861865 11.5009 1.58693C8.24469 3.16524 5.4615 5.83833 3.50333 9.26813C1.54517 12.6979 0.5 16.7304 0.5 20.8554C0.5 24.9805 1.54517 29.013 3.50333 32.4427C5.4615 35.8725 8.24469 38.5456 11.5009 40.1239C14.7571 41.7023 18.3401 42.1149 21.7967 41.3097C25.2533 40.5045 28.4283 38.5175 30.92 35.6002L33.4609 32.6262L28.4219 26.7283L25.8774 29.7023C24.3823 31.4527 22.4774 32.6448 20.4034 33.128C18.3294 33.6111 16.1796 33.3635 14.2259 32.4165C12.2722 31.4696 10.6023 29.8657 9.42736 27.8078C8.25247 25.75 7.62536 23.3305 7.62536 20.8554C7.62536 18.3804 8.25247 15.9609 9.42736 13.9031C10.6023 11.8452 12.2722 10.2413 14.2259 9.29433C16.1796 8.34734 18.3294 8.09976 20.4034 8.5829C22.4774 9.06603 24.3823 10.2582 25.8774 12.0086Z" fill="white"/>
</svg>
