<svg width="39" height="39" viewBox="0 0 39 39" fill="none" xmlns="http://www.w3.org/2000/svg">
<path d="M34.125 8.5238L4.87505 8.5238C4.5789 8.5247 4.28862 8.60429 4.03545 8.75398C3.78227 8.90368 3.57579 9.11781 3.43823 9.37334C3.30067 9.62887 3.23723 9.91612 3.25476 10.2042C3.27228 10.4922 3.37009 10.7701 3.53767 11.008L18.1627 31.5914C18.7688 32.4448 20.228 32.4448 20.8358 31.5914L35.4608 11.008C35.6301 10.7706 35.7293 10.4926 35.7478 10.204C35.7663 9.91551 35.7033 9.62757 35.5656 9.3715C35.4279 9.11543 35.2208 8.90102 34.9669 8.75157C34.7129 8.60212 34.4217 8.52334 34.125 8.5238ZM19.5 29.9331L5.39365 10.2042L33.6064 10.2042L19.5 29.9331Z" fill="black"/>
</svg>
