<svg width="399" height="944" viewBox="0 0 399 944" fill="none" xmlns="http://www.w3.org/2000/svg">
<g clip-path="url(#clip0_299_4859)">
<path d="M398.384 272.599V387.742C397.29 387.782 396.455 387.802 395.879 387.842C380.888 387.683 336.851 386.372 282.356 369.733C280.984 369.316 279.612 368.899 278.22 368.443C248.855 359.15 216.628 345.39 184.4 324.978C162.968 311.417 141.516 294.917 120.879 274.843C15.408 172.149 2.22661 44.993 0.616211 0H116.545C127.599 115.501 168.395 172.189 205.733 202.667C237.623 228.718 302.058 275.26 398.384 272.599Z" fill="#459EA8"/>
<path d="M398.384 160.712V272.599C302.058 275.26 237.623 228.738 205.733 202.687C168.396 172.189 127.599 115.501 116.545 0H227.344C228.119 20.2727 232.772 52.1808 253.071 83.533C299.911 155.947 387.847 160.375 398.404 160.712H398.384Z" fill="#408FAA"/>
<path d="M398.384 0V160.712C387.827 160.394 299.891 155.947 253.051 83.533C232.752 52.1808 228.1 20.2727 227.324 0H398.384Z" fill="#346FB0"/>
<path d="M184.559 728.407C204.261 747.448 229.471 776.696 249.293 817.559C273.647 867.814 279.473 914.157 280.467 943.98H169.23C169.151 921.444 164.28 871.129 124.656 827.884C78.4716 777.47 12.2665 771.99 0.238281 771.394C27.774 771.593 103.622 769.23 184.559 728.387V728.407Z" fill="#346FB0"/>
<path d="M399 387.842C398.066 406.963 394.944 439.605 384.606 478.284C367.945 540.552 332.517 618.545 257.325 681.031C233.626 700.728 209.252 716.156 185.315 728.208C185.096 728.307 184.897 728.427 184.678 728.526C161.338 740.241 138.474 748.779 117.042 754.954C115.909 755.271 114.775 755.589 113.662 755.907C112.549 756.244 111.435 756.542 110.322 756.84C109.268 757.138 108.215 757.416 107.181 757.694C107.121 757.714 107.061 757.734 107.002 757.734C105.908 758.012 104.815 758.309 103.721 758.587C102.807 758.826 101.912 759.064 101.017 759.282C99.924 759.54 98.8504 759.799 97.7768 760.057C96.8622 760.275 95.9278 760.493 95.0133 760.712C94.715 760.791 94.4168 760.851 94.0987 760.93C93.0052 761.169 91.9118 761.407 90.8382 761.645C89.9634 761.844 89.1085 762.042 88.2337 762.221C85.8877 762.717 83.5616 763.194 81.2752 763.651C80.142 763.869 79.0087 764.087 77.8755 764.286C42.924 770.818 15.0502 771.414 0.536798 771.315H0V657.284C0.616324 657.264 1.29229 657.264 2.06767 657.224H2.12731C3.26055 657.204 4.57272 657.164 6.04395 657.085C6.62051 657.045 7.19707 657.025 7.83328 657.006C8.80746 656.946 9.86118 656.886 10.9745 656.807C11.6505 656.767 12.3662 656.728 13.1018 656.668C14.2351 656.589 15.428 656.509 16.6606 656.39C19.7025 656.132 23.0823 655.794 26.7206 655.357C27.993 655.199 29.3052 655.04 30.6571 654.841C33.6195 654.444 36.7607 653.987 40.0213 653.431C41.6118 653.173 43.2222 652.895 44.8723 652.578C47.0593 652.181 49.286 651.744 51.5923 651.267C53.5605 650.87 55.5487 650.433 57.5766 649.977H57.5964C59.6442 649.5 61.7119 649.024 63.7994 648.487C64.3561 648.348 64.9327 648.209 65.5092 648.051C71.9906 646.403 78.79 644.457 85.7883 642.134C88.2138 641.319 90.6791 640.486 93.1842 639.572C97.8364 637.924 102.588 636.097 107.379 634.072C108.99 633.397 110.6 632.702 112.211 632.007C112.211 632.007 112.217 632.001 112.231 631.987C140.661 619.498 170.96 600.794 198.834 572.778C200.106 571.507 201.379 570.216 202.631 568.906C203.904 567.575 205.156 566.245 206.389 564.895C260.725 505.745 283.111 426.54 282.356 369.733C336.851 386.372 380.888 387.683 395.879 387.842C396.455 387.802 397.29 387.782 398.384 387.742V387.703L399 387.842Z" fill="#408FAA"/>
<path d="M206.389 564.895C205.156 566.245 203.903 567.576 202.631 568.906C201.378 570.216 200.106 571.507 198.834 572.778C170.96 600.794 140.661 619.498 112.23 631.988C112.23 631.988 112.224 631.994 112.21 632.007C110.6 632.702 108.99 633.397 107.379 634.072C102.588 636.078 97.8361 637.904 93.1838 639.572C90.6788 640.486 88.2135 641.32 85.7879 642.134C78.7897 644.457 71.9902 646.403 65.5089 648.051C64.9323 648.21 64.3558 648.349 63.7991 648.488C61.6917 649.004 59.624 649.5 57.5961 649.977H57.5762C55.5483 650.433 53.5602 650.85 51.5919 651.267C49.2857 651.744 47.0589 652.181 44.872 652.578C43.2218 652.896 41.6114 653.174 40.0209 653.432C36.7604 653.988 33.6191 654.444 30.6568 654.841C29.3048 655.02 27.9927 655.199 26.7203 655.358C23.082 655.794 19.7021 656.132 16.6603 656.39C15.4276 656.489 14.2347 656.589 13.1015 656.668C12.3659 656.728 11.6502 656.767 10.9742 656.807C9.86083 656.887 8.80711 656.946 7.83292 657.006C7.19672 657.026 6.62016 657.045 6.0436 657.085C4.59226 657.145 3.28008 657.184 2.12696 657.224H2.06732C1.31182 657.244 0.615974 657.244 0.0195312 657.264V545.417H0.99372C10.7754 545.615 75.9864 545.873 124.239 492.839C158.196 455.45 180.244 418.499 184.4 324.979C216.627 345.39 248.855 359.15 278.22 368.443C279.612 368.899 280.984 369.316 282.355 369.733C283.111 426.54 260.724 505.745 206.389 564.895Z" fill="#459EA8"/>
</g>
<defs>
<clipPath id="clip0_299_4859">
<rect width="399" height="944" fill="white"/>
</clipPath>
</defs>
</svg>
