<svg width="189" height="39" viewBox="0 0 189 39" fill="none" xmlns="http://www.w3.org/2000/svg">
<g clip-path="url(#clip0_344_6183)">
<path d="M5.00312 12.8105V28.9511H0V2.32422H7.54682L12.3622 17.2142C12.5806 18.0442 12.8028 18.8817 13.0326 19.7193C13.2625 20.5568 13.4847 21.3905 13.703 22.2243C13.8409 21.7468 13.975 21.2693 14.1053 20.7993C14.2317 20.3256 14.3619 19.8519 14.496 19.3706C14.6301 18.8931 14.768 18.4194 14.9059 17.9532L19.8478 2.32422H27.3563V28.9511H22.3532V12.8105C22.3532 12.4467 22.3685 11.7115 22.3991 10.6087C22.4298 9.50583 22.4796 8.30447 22.5409 7.00837C22.0965 8.69482 21.7019 10.1311 21.3648 11.3173C21.0277 12.4997 20.7518 13.4282 20.5335 14.0952L15.6798 28.9511H11.6688L6.81896 14.0952L4.77327 7.00837C4.84989 8.47122 4.90735 9.68395 4.94566 10.6465C4.98397 11.6092 5.00312 12.333 5.00312 12.8105Z" fill="black"/>
<path d="M52.3399 18.708C52.3399 22.0202 51.409 24.62 49.551 26.5035C47.693 28.3871 45.1187 29.3269 41.8318 29.3269C38.5449 29.3269 36.0816 28.3833 34.2467 26.4922C32.4117 24.6011 31.4961 22.0051 31.4961 18.708C31.4961 15.4109 32.4117 12.8338 34.2467 10.9503C36.0816 9.06682 38.6445 8.12695 41.9467 8.12695C45.2489 8.12695 47.8961 9.0365 49.6736 10.8594C51.4511 12.6785 52.3399 15.2972 52.3399 18.7118V18.708ZM46.7238 18.708C46.7238 16.2787 46.3216 14.5127 45.5209 13.4175C44.7203 12.3222 43.5519 11.7727 42.0272 11.7727C40.3952 11.7727 39.1732 12.3488 38.361 13.5008C37.545 14.6529 37.139 16.3886 37.139 18.708C37.139 21.0273 37.5374 22.7251 38.3342 23.9151C39.131 25.1051 40.2803 25.7001 41.782 25.7001C43.4369 25.7001 44.6743 25.1165 45.4979 23.953C46.3177 22.7896 46.7315 21.0387 46.7315 18.708H46.7238Z" fill="black"/>
<path d="M75.3354 15.7068C75.3048 13.2662 74.7148 11.4016 73.5847 10.1131C73.3357 9.83642 73.079 9.59008 72.7879 9.38543C71.6884 8.52516 70.2825 8.10449 68.5395 8.10449C67.0263 8.10449 65.7199 8.46452 64.6243 9.16942C63.5248 9.86673 62.6246 11.0037 61.9006 12.5726H61.8163C61.8163 12.3073 61.8048 11.8753 61.7741 11.2917C61.732 10.7081 61.7013 10.132 61.6592 9.57113C61.6286 9.01783 61.5979 8.6578 61.5673 8.50621H56.4492C56.4914 9.05951 56.522 9.68483 56.5526 10.3935C56.5833 11.0908 56.6063 11.9814 56.6063 13.0767V28.952H61.9733V17.9958C61.9733 16.2639 62.3679 14.8503 63.1647 13.755C63.9616 12.6484 65.0074 12.0951 66.3137 12.0951C67.5473 12.0951 68.4667 12.5461 69.0796 13.4367C69.6926 14.3387 69.9914 15.6802 69.9914 17.4842V28.952H75.3469V15.9683C75.3469 15.8849 75.3469 15.7939 75.3354 15.7106V15.7068Z" fill="black"/>
<path d="M80.502 0.907227V4.81069H85.869V0.907227H80.502ZM85.2254 8.50192H80.502V28.9477H85.869V8.50192H85.2254Z" fill="black"/>
<path d="M99.3837 25.6279C98.5869 25.6279 97.9969 25.3929 97.6138 24.9192C97.2307 24.4493 97.043 23.7103 97.043 22.7173V12.0908H100.843L99.3914 8.50571H97.0392V0.907227H92.0016L91.9939 8.50192H89.1055V12.087H91.7258V24.1499C91.7258 25.8704 92.151 27.1627 93.0091 28.0116C93.8596 28.8606 95.0701 29.2926 96.6561 29.2926C98.3762 29.2926 99.8779 29.0766 101.184 28.6483V25.3588C100.364 25.5331 99.7668 25.6241 99.3799 25.6241L99.3837 25.6279Z" fill="black"/>
<path d="M124.031 18.708C124.031 22.0202 123.1 24.62 121.242 26.5035C119.384 28.3871 116.81 29.3269 113.523 29.3269C110.236 29.3269 107.773 28.3833 105.938 26.4922C104.103 24.6011 103.188 22.0051 103.188 18.708C103.188 15.4109 104.103 12.8338 105.938 10.9503C107.773 9.06682 110.336 8.12695 113.638 8.12695C116.94 8.12695 119.587 9.0365 121.365 10.8594C123.143 12.6785 124.031 15.2972 124.031 18.7118V18.708ZM118.415 18.708C118.415 16.2787 118.013 14.5127 117.212 13.4175C116.412 12.3222 115.243 11.7727 113.719 11.7727C112.087 11.7727 110.865 12.3488 110.052 13.5008C109.236 14.6529 108.83 16.3886 108.83 18.708C108.83 21.0273 109.229 22.7251 110.026 23.9151C110.822 25.1051 111.972 25.7001 113.473 25.7001C115.128 25.7001 116.366 25.1165 117.189 23.953C118.009 22.7896 118.423 21.0387 118.423 18.708H118.415Z" fill="black"/>
<path d="M139.62 12.0904L138.168 8.5053L138.011 8.1377C137.398 8.17938 136.861 8.31202 136.425 8.52804C135.865 8.80469 135.379 9.23673 134.973 9.82793C134.548 10.4419 134.08 11.4575 133.575 12.8711H133.502C133.502 12.6854 133.49 12.3784 133.471 11.9502C133.452 11.522 133.429 11.0596 133.41 10.5783C133.379 10.097 133.356 9.65739 133.326 9.26705C133.306 8.8767 133.272 8.62279 133.253 8.50909H128.135C128.165 9.09272 128.208 9.74835 128.238 10.5063C128.269 11.2529 128.28 12.1852 128.28 13.3031V28.9511H133.655V18.9196C133.655 16.8201 134.027 15.2321 134.774 14.1558C135.509 13.0909 136.555 12.5566 137.892 12.5566C138.482 12.5566 139.145 12.6286 139.88 12.7726L139.612 12.098L139.62 12.0904Z" fill="black"/>
<path d="M148.883 0.907227V4.81827H143.516V0.907227H148.883ZM148.883 8.50571V28.9515H143.516V8.50571H148.883Z" fill="black"/>
<path d="M160.812 8.50999V6.89934C160.812 5.99738 161 5.3607 161.383 5.00446C161.486 4.9135 161.601 4.81876 161.747 4.75812L160.233 0.987305C158.824 1.13132 157.736 1.55198 156.962 2.2493C155.966 3.15126 155.472 4.52316 155.472 6.36878V8.50999H152.445V12.0951H155.472V28.952H160.816V12.0951H164.712L163.26 8.50999H160.816H160.812Z" fill="black"/>
<path d="M182.996 8.50965L179.736 18.814C179.403 19.9206 179.085 20.9894 178.797 22.0391C178.522 23.0889 178.223 24.2372 177.901 25.4726C177.568 24.2789 177.269 23.2177 176.993 22.2779C176.917 22.0164 176.84 21.7511 176.759 21.5123C176.418 20.3982 176.12 19.4659 175.84 18.7344L172.381 8.50586H166.32L175.043 30.1113C174.423 31.794 173.783 32.9878 173.12 33.7002C172.457 34.4127 171.461 34.7727 170.136 34.7727C169.837 34.7727 169.504 34.7614 169.151 34.7273C168.841 34.6932 168.512 34.6628 168.155 34.606V38.6421C168.895 38.7747 169.749 38.8505 170.699 38.8846H170.753C171.074 38.9074 171.404 38.9074 171.76 38.9074C173.097 38.9074 174.246 38.6762 175.231 38.2063C176.204 37.7477 177.112 36.9594 177.939 35.8452C178.349 35.2881 178.748 34.6515 179.146 33.9428C179.533 33.2303 179.908 32.4117 180.265 31.4832L188.999 8.51344H182.996V8.50965Z" fill="black"/>
</g>
<defs>
<clipPath id="clip0_344_6183">
<rect width="189" height="38" fill="white" transform="translate(0 0.907227)"/>
</clipPath>
</defs>
</svg>
