<svg width="540" height="538" viewBox="0 0 540 538" fill="none" xmlns="http://www.w3.org/2000/svg">
<g clip-path="url(#clip0_299_5017)">
<path d="M-1.19683e-05 264.198C28.5435 266.599 67.4018 273.84 109.084 293.95C150.785 314.061 180.135 339.741 198.594 359.064C156.528 442.846 155.433 521.27 155.472 537.712L155.472 538L0 538L-1.19683e-05 264.198Z" fill="#5EBB9D"/>
<path d="M261.098 -7.62948e-05L374.638 -8.12578e-05C378.096 24.7775 388.296 60.4841 417.242 92.7526C462.151 142.769 527.805 151.22 541.981 152.372L541.981 152.43C517.471 152.2 441.176 153.909 359.963 195.781C340.121 176.996 315.054 148.531 294.674 108.983C273.833 68.5704 264.844 30.1556 261.079 -7.62939e-05L261.098 -7.62948e-05Z" fill="#468F7E"/>
<path d="M374.638 3.05176e-05L541.98 2.32028e-05L541.98 152.373C527.805 151.22 462.151 142.788 417.242 92.7527C388.295 60.4842 378.095 24.7776 374.638 3.05176e-05Z" fill="#5EBB9D"/>
<path d="M542 152.43L542 260.645L541.866 260.645C523.906 260.28 425.828 259.876 345.96 337.494C263.173 418.011 263.23 520.829 263.711 538L155.472 538L155.472 537.712C155.453 521.27 156.528 442.846 198.594 359.064C217.745 320.898 245.405 281.6 285.358 246.585C309.81 225.169 335.108 208.593 359.963 195.781C441.195 153.909 517.49 152.2 542 152.43Z" fill="#468F7E"/>
<path d="M541.846 260.645L541.981 260.645L541.981 371.068L540.771 371.068C527.767 370.645 475.904 370.492 430.899 408.926C376.29 455.581 374.715 522.346 375.08 538.019L263.691 538.019C263.211 520.848 263.154 418.03 345.941 337.513C425.809 259.876 523.887 260.28 541.846 260.664L541.846 260.645Z" fill="#459EA8"/>
<path d="M540.79 371.049L542 371.049L542 538L375.1 538C374.735 522.346 376.31 455.562 430.919 408.907C475.943 370.473 527.786 370.626 540.79 371.049Z" fill="#49AAA7"/>
</g>
<defs>
<clipPath id="clip0_299_5017">
<rect width="538" height="542" fill="white" transform="translate(0 538) rotate(-90)"/>
</clipPath>
</defs>
</svg>
