<svg width="461" height="462" viewBox="0 0 461 462" fill="none" xmlns="http://www.w3.org/2000/svg">
<path d="M461 332.459V461.789H460.656C441.013 461.812 347.32 460.504 247.225 410.25C245.022 409.148 242.819 408.024 240.616 406.854C200.504 385.926 159.589 356.966 122.231 316.969C119.064 313.596 115.944 310.131 112.846 306.597C87.2598 277.386 67.4563 247.187 52.1506 217.493V217.448C2.14867 120.427 0.0834096 29.3036 0.358776 0H129.643V0.183577C129.184 21.6392 128.725 138.808 221.455 234.222C234.535 247.669 248.096 259.28 261.842 269.308C289.883 289.823 318.636 303.706 345.347 313.114C401.751 332.987 448.953 332.803 461 332.459Z" fill="#468F7E"/>
</svg>
