<svg width="71" height="192" viewBox="0 0 71 192" fill="none" xmlns="http://www.w3.org/2000/svg">
<path d="M33.181 0.417088C37.6172 5.30884 44.8184 14.0319 51.7327 25.9865C62.8595 45.236 73.247 72.8963 70.159 106.467C69.1864 117.049 67.0077 126.753 64.1124 135.528C64.0833 135.606 64.0639 135.683 64.0348 135.761C61.2025 144.308 57.7116 151.964 53.9933 158.695C53.7945 159.049 53.5958 159.402 53.4019 159.751C53.2128 160.105 53.014 160.449 52.8153 160.793C52.6311 161.123 52.442 161.447 52.2578 161.767C52.2481 161.787 52.2384 161.806 52.2239 161.82C52.0251 162.155 51.8312 162.494 51.6324 162.828C51.4676 163.109 51.3076 163.386 51.1428 163.657C50.9392 163.987 50.7405 164.311 50.5417 164.636C50.3721 164.912 50.1976 165.193 50.0279 165.469C49.9746 165.561 49.9164 165.649 49.8582 165.746C49.6498 166.07 49.4414 166.395 49.2378 166.715C49.073 166.976 48.913 167.233 48.7433 167.49C48.2925 168.183 47.8417 168.866 47.3958 169.535C47.1728 169.865 46.9498 170.194 46.722 170.519C39.7953 180.632 33.1458 187.572 29.5837 191.086L29.4528 191.217L1.63857 163.403C1.78397 163.248 1.94875 163.083 2.12808 162.884L2.14261 162.87C2.41403 162.589 2.7242 162.259 3.06347 161.881C3.19433 161.731 3.33004 161.585 3.48029 161.425C3.70324 161.173 3.94557 160.902 4.1976 160.611C4.35269 160.437 4.51748 160.253 4.68227 160.059C4.93915 159.763 5.21055 159.453 5.48198 159.123C6.16053 158.319 6.9021 157.413 7.68246 156.419C7.95388 156.07 8.235 155.712 8.51613 155.334C9.1414 154.515 9.79575 153.638 10.455 152.707C10.7797 152.257 11.1045 151.796 11.4293 151.316C11.8655 150.686 12.3018 150.037 12.7477 149.359C13.1307 148.782 13.5088 148.191 13.8917 147.585L13.8966 147.58C14.2795 146.965 14.6673 146.345 15.0454 145.705C15.1472 145.535 15.2539 145.361 15.3557 145.182C16.5336 143.2 17.7165 141.067 18.8558 138.795C19.2485 138.005 19.6461 137.201 20.0339 136.367C20.766 134.831 21.4788 133.227 22.1528 131.565C22.3807 131.008 22.6037 130.446 22.8268 129.884C22.8268 129.884 22.8268 129.881 22.8268 129.874C26.7109 119.897 29.5347 107.949 29.4958 94.3206C29.496 93.7005 29.4913 93.0755 29.477 92.4505C29.4627 91.8158 29.4435 91.186 29.4147 90.5562C28.2324 62.883 14.3702 38.1065 0.329722 24.4344C17.6725 15.2088 28.7271 4.7935 32.4201 1.17799C32.5509 1.02776 32.7496 0.819359 33.0065 0.543116L32.9968 0.533428L33.181 0.417088Z" fill="#408FAA"/>
</svg>
