<svg width="150" height="156" viewBox="0 0 150 156" fill="none" xmlns="http://www.w3.org/2000/svg">
<path d="M149.069 46.0111L149.069 0.407684C141.637 0.770782 128.948 1.98369 113.912 6.00093C89.7074 12.4749 59.3896 26.2417 35.0999 55.4594C27.4433 64.6682 21.4461 74.1396 16.761 83.4411C11.4353 93.9941 7.78456 104.323 5.29924 113.802C5.08313 114.606 4.88245 115.409 4.68178 116.197C4.58144 116.622 4.4811 117.039 4.38075 117.456C4.29585 117.812 4.21097 118.175 4.12605 118.53C4.09519 118.646 4.07204 118.762 4.04115 118.886C3.87135 119.65 3.70154 120.407 3.53946 121.165C0.243714 136.623 -0.04187 149.054 0.00444031 155.242L0.00444031 155.45L44.331 155.45C44.4854 147.779 46.0445 107.985 78.6778 76.7122C105.005 51.4962 135.825 46.8841 149.069 46.0111Z" fill="#408FAA"/>
</svg>
