<svg width="20" height="14" viewBox="0 0 20 14" fill="none" xmlns="http://www.w3.org/2000/svg">
<path d="M18.9994 1.99482e-06L0.998885 3.56848e-06C0.81664 0.000537642 0.637999 0.0475338 0.482196 0.135933C0.32639 0.224331 0.199321 0.350783 0.114665 0.50168C0.0300091 0.652578 -0.00902863 0.822206 0.00175553 0.992304C0.0125378 1.1624 0.0727337 1.32653 0.175862 1.46702L9.17612 13.622C9.54913 14.126 10.4472 14.126 10.8212 13.622L19.8214 1.46702C19.9256 1.32682 19.9867 1.16261 19.9981 0.992229C20.0094 0.821848 19.9706 0.651812 19.8859 0.500594C19.8012 0.349378 19.6737 0.222762 19.5174 0.134507C19.3612 0.0462523 19.182 -0.000266957 18.9994 1.99482e-06ZM9.99914 11.4472L2.90694 1.87001L17.0913 1.87L9.99914 11.4472Z" fill="#909090"/>
</svg>
